<?xml version="1.0" standalone="no"?>
<!DOCTYPE svg PUBLIC "-//W3C//DTD SVG 20010904//EN"
 "http://www.w3.org/TR/2001/REC-SVG-20010904/DTD/svg10.dtd">
<svg version="1.0" xmlns="http://www.w3.org/2000/svg"
 width="1024.000000pt" height="49.000000pt" viewBox="0 0 1024.000000 49.000000"
 preserveAspectRatio="xMidYMid meet">

<g transform="translate(0.000000,49.000000) scale(0.100000,-0.100000)"
fill="#000000" stroke="none">
<path d="M20 285 c0 -98 1 -105 20 -105 17 0 20 7 20 45 l0 45 45 0 45 0 0
-45 c0 -38 3 -45 20 -45 19 0 20 7 20 105 0 98 -1 105 -20 105 -17 0 -20 -7
-20 -40 l0 -40 -45 0 -45 0 0 40 c0 33 -3 40 -20 40 -19 0 -20 -7 -20 -105z"/>
<path d="M660 285 c0 -97 1 -105 20 -105 16 0 19 8 22 58 3 50 6 57 26 60 21
3 22 0 22 -57 0 -54 2 -61 20 -61 18 0 20 7 20 68 0 40 -5 73 -12 80 -15 15
-51 15 -66 0 -9 -9 -12 -4 -12 25 0 30 -4 37 -20 37 -19 0 -20 -7 -20 -105z"/>
<path d="M1650 353 c0 -29 -3 -34 -12 -25 -35 35 -98 -12 -98 -74 0 -57 63
-97 98 -62 9 9 12 9 12 0 0 -7 9 -12 20 -12 19 0 20 7 20 105 0 98 -1 105 -20
105 -16 0 -20 -7 -20 -37z m0 -98 c0 -8 -7 -21 -16 -29 -23 -23 -54 -4 -54 34
0 41 29 56 53 29 9 -12 17 -27 17 -34z"/>
<path d="M1760 285 l0 -105 75 0 c59 0 75 3 75 14 0 11 -15 16 -52 18 l-53 3
-3 88 c-3 79 -5 87 -22 87 -19 0 -20 -7 -20 -105z"/>
<path d="M2160 287 l0 -104 48 0 c34 0 53 5 70 20 29 27 30 85 2 115 -23 24
-41 27 -71 12 -17 -10 -19 -7 -19 25 0 24 -4 35 -15 35 -12 0 -15 -18 -15
-103z m88 11 c16 -16 15 -63 -2 -77 -34 -28 -67 26 -40 66 16 26 25 28 42 11z"/>
<path d="M276 319 c-20 -16 -26 -29 -26 -59 0 -30 6 -43 26 -59 15 -12 37 -21
49 -21 12 0 34 9 49 21 20 16 26 29 26 59 0 30 -6 43 -26 59 -15 12 -37 21
-49 21 -12 0 -34 -9 -49 -21z m84 -58 c0 -36 -25 -59 -48 -44 -24 14 -28 64
-6 80 25 18 54 -1 54 -36z"/>
<path d="M476 321 c-26 -29 -16 -53 29 -70 50 -18 51 -19 37 -33 -9 -9 -17 -9
-35 1 -14 7 -33 11 -43 9 -18 -3 -17 -5 4 -26 37 -37 117 -25 122 18 4 31 -1
39 -37 50 -49 16 -61 27 -39 36 10 4 22 2 29 -5 13 -13 47 -15 47 -2 0 16 -43
41 -71 41 -14 0 -34 -9 -43 -19z"/>
<path d="M860 259 c0 -72 2 -79 20 -79 16 0 19 8 22 58 3 50 6 57 26 60 21 3
22 0 22 -57 0 -54 2 -61 20 -61 16 0 19 8 22 58 3 50 6 57 26 60 21 3 22 0 22
-57 0 -54 2 -61 20 -61 18 0 20 7 20 70 0 65 -2 71 -25 82 -19 8 -31 8 -50 0
-13 -6 -27 -7 -30 -2 -3 4 -30 8 -60 8 l-55 -1 0 -78z"/>
<path d="M1168 329 c-10 -5 -18 -17 -18 -24 0 -18 31 -20 47 -4 6 6 16 8 22 5
20 -13 11 -25 -24 -32 -43 -8 -59 -26 -51 -59 7 -29 44 -42 75 -25 14 7 21 7
21 0 0 -5 10 -10 21 -10 20 0 21 4 17 66 -3 50 -9 70 -23 80 -22 16 -63 18
-87 3z m65 -88 c-6 -24 -33 -35 -47 -21 -8 8 -6 15 8 26 28 20 45 18 39 -5z"/>
<path d="M1340 260 c0 -73 2 -80 20 -80 18 0 20 7 20 55 0 42 4 56 18 63 32
17 42 3 42 -59 0 -52 2 -59 20 -59 18 0 20 7 20 64 0 45 -5 69 -16 80 -18 19
-55 21 -72 4 -9 -9 -12 -9 -12 0 0 7 -9 12 -20 12 -18 0 -20 -7 -20 -80z"/>
<path d="M1982 324 c-12 -8 -22 -19 -22 -25 0 -13 34 -11 47 2 13 13 43 6 43
-9 0 -6 -20 -15 -45 -21 -40 -10 -45 -14 -45 -40 0 -41 24 -58 61 -44 16 6 29
7 29 2 0 -5 10 -9 23 -9 22 0 22 2 17 66 -4 49 -11 70 -25 80 -25 18 -55 18
-83 -2z m66 -80 c-5 -26 -35 -41 -50 -26 -11 11 -9 16 6 28 26 19 48 18 44 -2z"/>
</g>
</svg>
